PathFileType	4	(X/Y/Z)	C:\Users\WrightLab\Desktop\Jo\P2_Trial18.trc
DataRate	CameraRate	NumFrames	NumMarkers	Units	OrigDataRate	OrigDataStartFrame	OrigNumFrames
100.00	100.00	       15	19	mm	100.00	217	       433
Frame#	Time	Headset_Front			Headset_Back			Headset_Left			Headset_Right			Left_Shoulder			Right_Shoulder			Sternum			C7			Left Elbow			Right Elbow			Left Wrist			Right Wrist			Left ASIS			Right ASIS			S2			Left Knee			Right Knee			Left Ankle			Right Ankle			
		X1	Y1	Z1	X2	Y2	Z2	X3	Y3	Z3	X4	Y4	Z4	X5	Y5	Z5	X6	Y6	Z6	X7	Y7	Z7	X8	Y8	Z8	X9	Y9	Z9	X10	Y10	Z10	X11	Y11	Z11	X12	Y12	Z12	X13	Y13	Z13	X14	Y14	Z14	X15	Y15	Z15	X16	Y16	Z16	X17	Y17	Z17	X18	Y18	Z18	X19	Y19	Z19	

217	2.160	-240.91164	1457.83887	730.86505	-370.65515	1634.94861	510.11423	-219.35023	1553.37952	538.94214	-378.70737	1512.57690	702.66248	-291.91388	1413.35608	379.98648	-450.81351	1385.49158	662.77301	-313.90930	1281.51514	546.11169	-478.51248	1386.13464	477.02206	-156.16954	1216.80762	441.60217	-532.75885	1081.48889	789.65594	-197.88470	1145.83374	331.36707	-392.37820	919.29633	886.81409	-235.68913	1005.42987	516.78564	-458.01572	901.83374	387.92923	-314.32196	968.93500	617.53796	-113.42256	462.24304	448.28845	-557.45764	497.76108	536.60248	2.07976	122.81693	457.03107	-696.03290	106.09479	420.44843	
218	2.170	-234.47758	1459.43481	741.40576	-361.25806	1636.66284	518.86078	-210.54961	1556.34790	550.74323	-372.40994	1513.25842	710.37079	-282.10251	1415.75317	388.47919	-440.61938	1387.41150	670.99182	-305.06378	1282.53540	553.79706	-468.72214	1388.78235	485.08521	-149.21686	1219.84692	449.61127	-526.67822	1082.44434	792.83716	-186.53563	1148.78577	340.95135	-389.78696	917.09253	886.75433	-224.53697	1008.36859	523.51263	-449.35596	903.40222	396.84512	-303.59250	969.92694	622.92432	-102.37503	467.78574	450.89108	-539.00641	498.08481	542.13385	2.49326	123.78545	458.16205	-683.55798	114.89235	434.28586	
219	2.180	-229.42851	1458.46716	742.65833	-352.18900	1638.23621	527.57086	-201.78595	1558.69299	561.51215	-366.83044	1514.34412	718.35291	-271.96863	1418.30103	396.94373	-429.92395	1389.05518	678.98871	-294.77295	1285.03809	562.16174	-458.96399	1391.04297	493.39780	-138.08810	1222.83215	460.58545	-523.65332	1083.84448	797.12262	-176.25851	1151.87842	349.60938	-387.62341	914.44165	887.21265	-216.39493	1010.64331	528.64575	-442.39578	906.03296	404.66086	-292.88535	970.79535	628.17029	-90.48399	472.18900	452.17676	-519.68658	498.86884	548.00793	3.02312	125.26163	460.64166	-670.71655	123.96970	441.06586	
220	2.190	-223.60040	1460.21826	753.15063	-343.76831	1639.65613	536.11700	-192.95958	1561.17859	571.86273	-360.31216	1515.19043	726.48688	-262.05795	1421.67090	405.54535	-421.15759	1390.74756	686.56799	-285.14151	1286.38306	568.92249	-449.47342	1393.22107	501.26456	-129.53146	1225.91943	467.66779	-517.29187	1084.72498	799.75970	-164.34993	1156.10852	358.20309	-385.38101	911.58588	886.80267	-207.70132	1013.44147	533.76453	-435.46307	907.65540	412.93588	-283.24521	972.92957	634.48102	-78.43014	475.70462	454.67395	-498.74374	499.08218	555.11578	3.31029	126.11083	461.36896	-654.54852	135.42471	449.11243	
221	2.200	-217.36253	1462.78357	765.33783	-336.02942	1641.40698	544.77338	-185.02914	1563.43494	582.51147	-354.50574	1516.55505	734.92438	-252.10130	1423.84937	414.57944	-411.79419	1392.28149	693.89453	-275.99326	1288.22876	577.09760	-439.95450	1395.68896	509.21576	-119.51980	1229.63098	477.86639	-512.80219	1085.72510	802.97321	-153.59995	1158.66260	367.26559	-384.07861	907.70905	886.39642	-200.47014	1016.28296	540.35406	-429.02701	909.09186	421.06049	-275.62466	974.54047	640.02844	-66.97937	477.82916	457.17200	-477.36600	499.42471	561.50153	2.97430	126.60759	464.25653	-635.83392	144.36610	449.75922	
222	2.210	-211.17534	1466.80591	782.98083	-327.31094	1642.66028	553.75885	-176.94008	1565.53589	598.10846	-348.46182	1518.71008	744.32300	-241.61499	1426.79077	424.53479	-404.41812	1394.08020	701.89050	-267.06091	1290.29309	585.31177	-430.61108	1397.92590	516.63562	-110.65304	1232.12537	486.36078	-509.23264	1086.85291	805.95947				-382.53500	904.36304	885.21271	-191.38980	1019.60864	547.39594	-421.85706	910.30896	428.33279	-267.20413	977.77380	646.77679	-56.09135	479.02896	457.96176	-455.86118	497.60165	568.17584	2.95731	125.70667	465.60492	-614.87805	157.17107	458.51974	
223	2.220	-205.11487	1468.71191	793.75372	-318.33984	1644.32263	562.87421	-168.25101	1567.13135	610.20917	-341.97662	1520.37048	752.95386	-231.41922	1429.51184	434.38846	-396.79535	1395.75903	709.11548	-257.24207	1292.42615	594.41516	-421.63135	1400.69043	524.17804	-101.64955	1233.79956	495.13962	-504.93912	1087.75159	809.06500	-134.75226	1164.46704	384.76465	-382.03610	900.93097	885.09827	-184.69144	1021.88062	554.63544	-414.30692	912.34991	435.36707	-261.52039	981.15692	653.14160	-45.57871	480.19580	458.76370	-432.10901	496.68723	574.83105	3.89329	124.70727	466.69522	-592.09399	172.68733	475.15338	
224	2.230	-200.32378	1467.88586	795.75244	-309.85464	1646.96643	572.39703	-161.92264	1567.98462	615.19440	-335.37793	1522.00220	761.88141	-221.36876	1432.87561	444.05377	-390.37769	1397.58472	717.32257	-247.20746	1295.04138	603.69971	-412.95825	1404.02258	531.66888	-92.73492	1234.73840	506.23123	-501.43994	1088.86499	811.77747	-124.69999	1166.63904	393.33649	-381.74091	897.02185	884.18420	-178.39018	1024.15393	561.90234	-406.90903	914.86078	440.96512	-256.43176	985.21875	661.07117	-35.14412	480.65994	459.40915	-407.95859	495.68533	582.63177	4.84673	123.76698	468.24304	-568.95959	184.03261	485.02493	
225	2.240	-195.15802	1470.48230	809.00848	-301.00864	1648.96033	582.01196	-152.94997	1571.00195	627.21741	-330.43707	1524.30518	771.47400	-210.83563	1435.23206	454.57199	-384.00308	1399.34070	724.98096	-239.13939	1297.67737	613.55182	-403.97955	1407.08154	539.10651	-84.97256	1235.32886	515.39502	-497.77496	1089.55566	814.34692	-115.91139	1168.85437	402.72079	-381.61600	892.87994	883.26526	-172.30560	1025.85852	569.96741	-398.60449	917.52594	446.48425	-251.37724	987.96082	668.04883	-26.66481	481.03311	459.54062	-383.87308	495.56088	591.73297	5.58924	122.04231	470.51825	-545.60785	194.67529	495.07962	
226	2.250	-189.59201	1473.39453	826.08038	-292.41895	1651.71643	592.31732				-323.70587	1525.49182	780.33362	-201.05362	1438.78857	464.44223	-378.42273	1400.88635	733.17957	-232.16197	1301.47900	624.03571	-395.07025	1410.41650	546.05682	-75.72060	1237.73352	530.20435	-495.03967	1090.09485	817.48859	-107.22846	1171.55212	411.98691	-382.66962	888.15826	882.08527	-165.55688	1027.66003	579.10773	-390.12057	920.77441	451.43219	-247.12677	990.39966	676.72845	-19.42098	481.25790	459.81424	-358.80524	496.45169	602.65015	6.64950	122.27719	471.20825	-521.80377	204.99785	505.47534	
227	2.260	-184.88541	1472.64771	829.70905	-284.01205	1654.12732	602.51154	-137.10747	1574.82458	651.34241	-319.00922	1528.22302	789.83026	-190.67485	1440.97192	476.00659	-373.08514	1402.95007	740.85883	-225.80743	1302.42480	631.44006	-386.64224	1413.94495	553.35669	-68.53388	1238.15173	538.40112	-490.48892	1090.76746	819.24475	-98.41723	1174.24988	421.15469	-384.23669	883.53436	881.00677	-160.51418	1029.45508	588.40271	-381.53763	924.04150	456.62204	-243.28050	991.83838	684.42010	-13.08987	482.62808	460.23331	-334.74951	498.20007	615.55658	7.34167	122.29942	473.30002	-497.00839	214.46237	516.33466	
228	2.270	-180.86089	1472.71155	838.95428	-274.73895	1656.90417	613.03912	-130.06465	1576.88977	663.04987	-312.99713	1529.61670	798.87109	-179.42780	1443.70886	486.32245	-368.27426	1405.48523	748.09119	-218.32048	1305.36768	642.54816	-377.85516	1416.92542	560.42126	-61.56914	1238.86865	548.55511	-486.42792	1091.56006	820.95135	-87.78802	1177.65369	431.44958	-385.85959	878.67236	879.53497	-154.36998	1031.50720	599.20032	-373.74277	927.36963	461.42593	-240.35550	993.67212	693.58392	-8.16314	483.56348	460.81845	-310.28848	502.10986	630.28052	8.51850	123.62420	474.53635	-470.75449	222.99934	527.41711	
229	2.280	-177.20255	1473.48132	851.25208	-266.28308	1659.65820	623.55969	-124.02840	1578.24902	674.26868	-308.17557	1531.47290	808.00934	-170.00211	1446.34119	497.82742	-363.16904	1407.17261	755.65155	-211.71336	1306.37524	651.89258	-369.33136	1420.53137	567.59192	-54.83193	1239.47327	561.81805	-482.44058	1093.10205	822.35950				-388.77737	874.24329	878.44287	-150.12477	1032.61145	608.46252	-365.95236	930.50043	466.79291	-236.12878	996.03778	701.81555	-4.42676	484.09796	462.83578	-286.39413	507.31067	646.51465	9.61492	124.32700	476.47400	-443.97192	231.06445	539.60962	
230	2.290	-173.46396	1473.85291	862.67072	-259.04156	1661.53113	634.08472	-116.27384	1579.64795	687.11389	-303.95654	1532.48254	816.95074	-160.63585	1448.97144	509.23639	-358.55261	1409.38037	762.63867	-205.46342	1308.07764	661.74896	-360.90424	1423.66443	574.59595	-47.41554	1240.39172	573.72992	-478.05734	1093.74060	822.81317				-393.00610	870.16559	875.59192	-143.98689	1034.96826	618.68823	-358.70172	934.26373	472.03448	-233.04346	998.16174	709.76105	-1.04923	483.56339	465.50882	-263.74689	516.14447	664.67676	10.94719	125.05729	477.40988	-416.33261	238.23570	552.36914	
231	2.300	-169.96494	1473.78894	871.10736	-251.79593	1663.41162	644.53394				-299.77612	1533.03235	825.34760	-150.93825	1451.17395	520.17889	-353.87613	1410.94141	769.74078	-198.64909	1308.66174	672.06458	-352.36841	1426.27747	581.75342	-39.51746	1241.08203	584.72583	-474.84885	1095.38342	822.84534				-396.93790	866.00854	873.63019	-139.32278	1036.62244	628.09418	-351.56177	937.66882	477.45612	-230.02681	1000.09473	718.49329	1.73364	482.89450	467.60138	-242.51596	526.20764	684.73541	12.22227	124.51155	479.94751	-388.01443	244.41380	565.44244	
